# xmcd
#
# Track frame offsets:
#	150
#	14729
#	38167
#	53696
#	71980
#	88608
#	109010
#	124258
#	140113
#	158239
#	175344
#	192428
#	210948
#	227900
#	244452
#	271829
#
# Disc length: 4225 seconds
#
# Revision: 3
# Processed by: cddbd v1.5.2PL0 Copyright (c) Steve Scherf et al.
# Submitted via: audiograbber 1.83.01
#
DISCID=ee107f10
DTITLE=Various Artist - Best Of Millennium Country
DYEAR=1900
DGENRE=Karaoke
TTITLE0=Alan Jackson - To Much Of A Good Thing
TTITLE1=Alan Jackson - Where Were You
TTITLE2=Blake Shelton - Some Beach
TTITLE3=Brad Paisley - I Wish You'd Stay
TTITLE4=Brad Paisley - The World
TTITLE5=Brad Paisly and Alison Krauss - Whiskey Lullaby
TTITLE6=Brooks and Dunn - Play Something Country
TTITLE7=Buddy Jewell - Sweet Southern Comfort
TTITLE8=Carrie Underwood - Don't Forget To Remember Me
TTITLE9=Carrie Underwood - Lot Of Lovin Left To Do
TTITLE10=Dierks Bently - Settle For A Slowdown
TTITLE11=Gary Allan - Best I Ever Had
TTITLE12=Gary Allan - Man To Man
TTITLE13=George Straight - Living And Living Well
TTITLE14=Gretchen Wilson - Redneck Woman
TTITLE15=Data - Data Track
EXTD=All Star Karaoke Disk ASK 66 Vol.2 Disk 1
EXTT0=
EXTT1=
EXTT2=
EXTT3=
EXTT4=
EXTT5=
EXTT6=
EXTT7=
EXTT8=
EXTT9=
EXTT10=
EXTT11=
EXTT12=
EXTT13=
EXTT14=
EXTT15=
PLAYORDER=
